<svg width="30" height="31" viewBox="0 0 30 31" fill="none" xmlns="http://www.w3.org/2000/svg">
<g id="akar-icons:basket">
<g id="Group">
<path id="Vector" d="M2.88708 14.5538C2.8409 14.3694 2.83736 14.177 2.87671 13.9911C2.91606 13.8052 2.99726 13.6308 3.11416 13.481C3.23105 13.3312 3.38056 13.21 3.55131 13.1267C3.72206 13.0433 3.90957 13 4.09958 13H25.8996C26.0894 13.0001 26.2768 13.0434 26.4475 13.1266C26.6181 13.2099 26.7675 13.331 26.8844 13.4806C27.0013 13.6302 27.0825 13.8045 27.122 13.9903C27.1614 14.176 27.158 14.3683 27.1121 14.5525L24.8483 23.6063C24.7131 24.1471 24.401 24.6272 23.9617 24.9704C23.5223 25.3135 22.9808 25.4999 22.4233 25.5H7.57583C7.01834 25.4999 6.47687 25.3135 6.03749 24.9704C5.59811 24.6272 5.28602 24.1471 5.15083 23.6063L2.88708 14.5538Z" stroke="white" stroke-width="1.83333" stroke-linejoin="round"/>
<path id="Vector_2" d="M11.25 18V20.5M18.75 18V20.5M7.5 13L12.5 5.5M22.5 13L17.5 5.5" stroke="white" stroke-width="1.83333" stroke-linecap="round"/>
</g>
</g>
</svg>
