<svg width="18" height="18" viewBox="0 0 18 18" fill="none" xmlns="http://www.w3.org/2000/svg">
<path d="M14.6233 5.99208L9.00054 11.4731L3.37779 5.99208C3.27733 5.89395 3.14247 5.83902 3.00204 5.83902C2.86161 5.83902 2.72675 5.89395 2.62629 5.99208C2.57765 6.03973 2.53901 6.09662 2.51263 6.1594C2.48624 6.22219 2.47266 6.2896 2.47266 6.3577C2.47266 6.4258 2.48624 6.49321 2.51263 6.556C2.53901 6.61878 2.57765 6.67567 2.62629 6.72332L8.60792 12.5553C8.71296 12.6577 8.85385 12.715 9.00054 12.715C9.14724 12.715 9.28812 12.6577 9.39317 12.5553L15.3748 6.72445C15.4238 6.67675 15.4627 6.61973 15.4893 6.55674C15.5159 6.49375 15.5296 6.42607 15.5296 6.3577C15.5296 6.28933 15.5159 6.22165 15.4893 6.15866C15.4627 6.09567 15.4238 6.03865 15.3748 5.99095C15.2743 5.89282 15.1395 5.83789 14.999 5.83789C14.8586 5.83789 14.7238 5.89282 14.6233 5.99095V5.99208Z" fill="#1B1B30"/>
</svg>
