<svg width="50" height="54" viewBox="0 0 50 54" fill="none" xmlns="http://www.w3.org/2000/svg">
<g id="basil:menu-solid">
<path id="Vector" fill-rule="evenodd" clip-rule="evenodd" d="M41.1471 26.9993C41.1471 26.5631 40.9825 26.1447 40.6895 25.8363C40.3965 25.5278 39.999 25.3546 39.5846 25.3546H10.418C10.0036 25.3546 9.60614 25.5278 9.31311 25.8363C9.02009 26.1447 8.85547 26.5631 8.85547 26.9993C8.85547 27.4355 9.02009 27.8539 9.31311 28.1623C9.60614 28.4708 10.0036 28.644 10.418 28.644H39.5846C39.999 28.644 40.3965 28.4708 40.6895 28.1623C40.9825 27.8539 41.1471 27.4355 41.1471 26.9993ZM41.1471 16.0344C41.1471 15.5982 40.9825 15.1798 40.6895 14.8714C40.3965 14.5629 39.999 14.3896 39.5846 14.3896H10.418C10.0036 14.3896 9.60614 14.5629 9.31311 14.8714C9.02009 15.1798 8.85547 15.5982 8.85547 16.0344C8.85547 16.4706 9.02009 16.8889 9.31311 17.1974C9.60614 17.5058 10.0036 17.6791 10.418 17.6791H39.5846C39.999 17.6791 40.3965 17.5058 40.6895 17.1974C40.9825 16.8889 41.1471 16.4706 41.1471 16.0344ZM41.1471 37.9642C41.1471 37.528 40.9825 37.1097 40.6895 36.8012C40.3965 36.4928 39.999 36.3195 39.5846 36.3195H10.418C10.0036 36.3195 9.60614 36.4928 9.31311 36.8012C9.02009 37.1097 8.85547 37.528 8.85547 37.9642C8.85547 38.4004 9.02009 38.8188 9.31311 39.1272C9.60614 39.4357 10.0036 39.6089 10.418 39.6089H39.5846C39.999 39.6089 40.3965 39.4357 40.6895 39.1272C40.9825 38.8188 41.1471 38.4004 41.1471 37.9642Z" fill="white"/>
</g>
</svg>
