<svg width="30" height="30" viewBox="0 0 30 30" fill="none" xmlns="http://www.w3.org/2000/svg">
<path fill-rule="evenodd" clip-rule="evenodd" d="M6.83667 6.83765C7.01246 6.66209 7.25074 6.56348 7.49918 6.56348C7.74761 6.56348 7.98589 6.66209 8.16168 6.83765L23.1617 21.8377C23.2538 21.9235 23.3277 22.027 23.3789 22.142C23.4301 22.257 23.4577 22.3811 23.4599 22.507C23.4621 22.6329 23.439 22.7579 23.3918 22.8746C23.3447 22.9914 23.2745 23.0974 23.1855 23.1865C23.0965 23.2755 22.9904 23.3457 22.8737 23.3928C22.7569 23.44 22.6319 23.4631 22.506 23.4609C22.3801 23.4587 22.256 23.4311 22.141 23.3799C22.026 23.3286 21.9225 23.2548 21.8367 23.1627L6.83667 8.16265C6.66111 7.98687 6.5625 7.74859 6.5625 7.50015C6.5625 7.25171 6.66111 7.01343 6.83667 6.83765Z" fill="black"/>
<path fill-rule="evenodd" clip-rule="evenodd" d="M23.1626 6.83765C23.3381 7.01343 23.4367 7.25171 23.4367 7.50015C23.4367 7.74859 23.3381 7.98687 23.1626 8.16265L8.16255 23.1627C7.98483 23.3283 7.74978 23.4184 7.5069 23.4141C7.26402 23.4098 7.03229 23.3114 6.86052 23.1397C6.68876 22.9679 6.59037 22.7362 6.58608 22.4933C6.5818 22.2504 6.67195 22.0154 6.83755 21.8377L21.8376 6.83765C22.0133 6.66209 22.2516 6.56348 22.5001 6.56348C22.7485 6.56348 22.9868 6.66209 23.1626 6.83765Z" fill="black"/>
</svg>
