<svg width="22" height="22" viewBox="0 0 22 22" fill="none" xmlns="http://www.w3.org/2000/svg">
<path d="M11 15.125C8.73125 15.125 6.875 13.2687 6.875 11C6.875 8.73125 8.73125 6.875 11 6.875C13.2687 6.875 15.125 8.73125 15.125 11C15.125 13.2687 13.2687 15.125 11 15.125ZM11 8.25C9.4875 8.25 8.25 9.4875 8.25 11C8.25 12.5125 9.4875 13.75 11 13.75C12.5125 13.75 13.75 12.5125 13.75 11C13.75 9.4875 12.5125 8.25 11 8.25Z" fill="#535252"/>
<path d="M11 17.875C6.61372 17.875 2.76372 15.2075 1.41622 11.22C1.36126 11.0785 1.36126 10.9215 1.41622 10.78C2.76372 6.80625 6.62747 4.125 11 4.125C15.3725 4.125 19.2362 6.7925 20.5837 10.78C20.6387 10.9175 20.6387 11.0825 20.5837 11.22C19.2362 15.1937 15.3725 17.875 11 17.875ZM2.79122 11C4.01497 14.3 7.28747 16.5 11 16.5C14.7125 16.5 17.9712 14.3 19.2087 11C17.985 7.7 14.7125 5.5 11 5.5C7.28747 5.5 4.02872 7.7 2.79122 11Z" fill="#535252"/>
<path d="M19.25 19.9376C19.1598 19.9387 19.0704 19.9209 18.9876 19.8854C18.9047 19.8499 18.8301 19.7974 18.7687 19.7313L2.26875 3.23133C1.99375 2.95633 1.99375 2.53008 2.26875 2.25508C2.54375 1.98008 2.97 1.98008 3.245 2.25508L19.7313 18.7688C20.0063 19.0438 20.0063 19.4701 19.7313 19.7451C19.5938 19.8826 19.415 19.9513 19.25 19.9513V19.9376Z" fill="#535252"/>
</svg>
