<svg width="39" height="27" viewBox="0 0 39 27" fill="none" xmlns="http://www.w3.org/2000/svg">
<path d="M9.01818 27C6.32727 27 4.14545 25.7943 2.47273 23.383C0.824242 20.9472 0 17.6346 0 13.4452C0 9.2314 0.787878 5.94317 2.36364 3.58052C3.96364 1.19351 6.18182 0 9.01818 0C11.8545 0 14.0606 1.19351 15.6364 3.58052C17.2121 5.94317 18 9.2314 18 13.4452C18 17.6346 17.1758 20.9472 15.5273 23.383C13.8788 25.7943 11.7091 27 9.01818 27ZM3.78182 4.71313C2.52121 6.78349 1.89091 9.70636 1.89091 13.4817C1.89091 17.2571 2.52121 20.1922 3.78182 22.2869C5.04242 24.3572 6.78788 25.3924 9.01818 25.3924C11.2727 25.3924 13.0182 24.3572 14.2545 22.2869C15.4909 20.1922 16.1091 17.2571 16.1091 13.4817C16.1091 9.70636 15.4909 6.78349 14.2545 4.71313C13.0182 2.64276 11.2727 1.60758 9.01818 1.60758C6.78788 1.60758 5.04242 2.64276 3.78182 4.71313Z" fill="url(#paint0_linear_527_11264)"/>
<path d="M24.2308 1.34455C26.5958 0.448183 28.7798 0 30.7828 0C32.81 0 34.451 0.484523 35.7059 1.45357C36.9608 2.39839 37.5882 3.58546 37.5882 5.0148C37.5882 6.44414 37.1176 7.74024 36.1765 8.9031C35.2594 10.0659 34.1493 10.9987 32.8462 11.7012C34.632 12.1857 36.1041 13.0094 37.2624 14.1723C38.4208 15.3109 39 16.7887 39 18.6057C39 21.004 38.1071 23.0027 36.3213 24.6016C34.5354 26.2005 32.3756 27 29.8416 27C27.3077 27 25.0271 26.4913 23 25.4738L23.5792 24.1292C25.2202 24.9771 27.1991 25.4011 29.5158 25.4011C31.8326 25.4011 33.6787 24.7712 35.0543 23.5114C36.4299 22.2275 37.1176 20.5922 37.1176 18.6057C37.1176 17.3217 36.6471 16.2073 35.7059 15.2624C34.7647 14.3176 33.6787 13.6393 32.448 13.2275C31.2172 12.8156 30.0106 12.6097 28.8281 12.6097C28.7557 12.6097 28.6833 12.6097 28.6109 12.6097V11.3742C30.3725 11.2773 32.0015 10.5868 33.4977 9.30283C34.994 7.99462 35.7421 6.62584 35.7421 5.1965C35.7421 4.13055 35.2836 3.27053 34.3665 2.61642C33.4736 1.93809 32.1463 1.59892 30.3846 1.59892C28.6229 1.59892 26.7044 1.96232 24.629 2.6891L24.2308 1.34455Z" fill="url(#paint1_linear_527_11264)"/>
<defs>
<linearGradient id="paint0_linear_527_11264" x1="1.65859e-08" y1="16.0312" x2="18.0033" y2="16.0806" gradientUnits="userSpaceOnUse">
<stop stop-color="#E5A14B"/>
<stop offset="0.319814" stop-color="#FDD559"/>
<stop offset="0.715659" stop-color="#F7C55B"/>
<stop offset="1" stop-color="#F1A144"/>
</linearGradient>
<linearGradient id="paint1_linear_527_11264" x1="23" y1="16.0312" x2="39.003" y2="16.0703" gradientUnits="userSpaceOnUse">
<stop stop-color="#E5A14B"/>
<stop offset="0.319814" stop-color="#FDD559"/>
<stop offset="0.715659" stop-color="#F7C55B"/>
<stop offset="1" stop-color="#F1A144"/>
</linearGradient>
</defs>
</svg>
