<svg width="40" height="27" viewBox="0 0 40 27" fill="none" xmlns="http://www.w3.org/2000/svg">
<path d="M9.01818 27C6.32727 27 4.14545 25.7943 2.47273 23.383C0.824242 20.9472 0 17.6346 0 13.4452C0 9.23139 0.787879 5.94317 2.36364 3.58052C3.96364 1.19351 6.18182 0 9.01818 0C11.8545 0 14.0606 1.19351 15.6364 3.58052C17.2121 5.94317 18 9.23139 18 13.4452C18 17.6346 17.1758 20.9472 15.5273 23.383C13.8788 25.7943 11.7091 27 9.01818 27ZM3.78182 4.71313C2.52121 6.78349 1.89091 9.70636 1.89091 13.4817C1.89091 17.2571 2.52121 20.1922 3.78182 22.2869C5.04242 24.3572 6.78788 25.3924 9.01818 25.3924C11.2727 25.3924 13.0182 24.3572 14.2545 22.2869C15.4909 20.1922 16.1091 17.2571 16.1091 13.4817C16.1091 9.70636 15.4909 6.78349 14.2545 4.71313C13.0182 2.64276 11.2727 1.60758 9.01818 1.60758C6.78788 1.60758 5.04242 2.64276 3.78182 4.71313Z" fill="url(#paint0_linear_527_11260)"/>
<path d="M23 27V25.5516C27.2082 21.912 30.5556 18.4952 33.0422 15.3012C35.5288 12.1073 36.7722 9.43329 36.7722 7.27923C36.7722 5.12517 36.27 3.65199 35.2658 2.8597C34.2855 2.04264 32.7911 1.63411 30.7827 1.63411C28.7743 1.63411 26.718 2.01788 24.6139 2.78542L24.1835 1.29986C26.5267 0.433287 28.8101 0 31.0338 0C33.2813 0 35.1104 0.557084 36.5211 1.67125C37.9318 2.78542 38.6371 4.58047 38.6371 7.0564C38.6371 9.50757 37.4655 12.3177 35.1224 15.4869C32.7792 18.6561 29.635 21.9862 25.6899 25.4773H40V27H23Z" fill="url(#paint1_linear_527_11260)"/>
<defs>
<linearGradient id="paint0_linear_527_11260" x1="1.65859e-08" y1="16.0312" x2="18.0033" y2="16.0806" gradientUnits="userSpaceOnUse">
<stop stop-color="#E5A14B"/>
<stop offset="0.319814" stop-color="#FDD559"/>
<stop offset="0.715659" stop-color="#F7C55B"/>
<stop offset="1" stop-color="#F1A144"/>
</linearGradient>
<linearGradient id="paint1_linear_527_11260" x1="23" y1="16.0312" x2="40.0032" y2="16.0753" gradientUnits="userSpaceOnUse">
<stop stop-color="#E5A14B"/>
<stop offset="0.319814" stop-color="#FDD559"/>
<stop offset="0.715659" stop-color="#F7C55B"/>
<stop offset="1" stop-color="#F1A144"/>
</linearGradient>
</defs>
</svg>
