<svg width="160" height="41" viewBox="0 0 160 41" fill="none" xmlns="http://www.w3.org/2000/svg">
<g id="Group">
<path id="Vector" d="M45.6934 35.1357H42.7833C42.5489 35.1357 42.3545 35.333 42.3545 35.5708V40.4957C42.3545 40.7335 42.5489 40.9307 42.7833 40.9307H43.1378C43.3722 40.9307 43.5666 40.7335 43.5666 40.4957V38.6684H45.3504C45.5848 38.6684 45.7792 38.4712 45.7792 38.2334V37.9375C45.7792 37.6997 45.5848 37.5025 45.3504 37.5025H43.5666V36.3017H45.6934C45.9278 36.3017 46.1222 36.1045 46.1222 35.8666V35.5708C46.1222 35.333 45.9278 35.1357 45.6934 35.1357Z" fill="white"/>
<path id="Vector_2" d="M53.1482 35.9069C52.9023 35.6401 52.605 35.4371 52.2677 35.2921C51.5988 35.0136 50.7297 35.0078 50.0551 35.2921C49.7178 35.4371 49.4205 35.6401 49.1803 35.9069C48.9402 36.168 48.7458 36.487 48.6143 36.8467C48.4828 37.2063 48.4199 37.6008 48.4199 38.03C48.4199 38.4593 48.4885 38.8595 48.6143 39.2192C48.7458 39.5846 48.9345 39.8979 49.1803 40.1589C49.4262 40.42 49.7178 40.6288 50.0608 40.768C50.3924 40.9072 50.764 40.9826 51.1643 40.9826C51.5645 40.9826 51.9361 40.913 52.2734 40.768C52.6107 40.623 52.908 40.42 53.1539 40.1531C53.394 39.8921 53.5884 39.573 53.7199 39.2134C53.8514 38.8537 53.9143 38.4593 53.9143 38.03C53.9143 37.6008 53.8514 37.2063 53.7199 36.8467C53.5884 36.4812 53.3997 36.168 53.1539 35.9011L53.1482 35.9069ZM50.5296 39.6891C50.3467 39.6137 50.198 39.5092 50.0665 39.3642C49.935 39.2192 49.8264 39.0336 49.7521 38.8189C49.672 38.5927 49.632 38.3317 49.632 38.0358C49.632 37.74 49.672 37.479 49.7521 37.2527C49.8264 37.0381 49.9293 36.8525 50.0608 36.7075C50.1923 36.5624 50.3467 36.4522 50.5296 36.3768C50.7126 36.2956 50.9241 36.2608 51.1528 36.2608C51.3815 36.2608 51.5988 36.3014 51.7874 36.3768C51.9704 36.4522 52.1191 36.5624 52.2506 36.7017C52.3821 36.8467 52.485 37.0323 52.5593 37.2469C52.6393 37.4732 52.6736 37.74 52.6736 38.03C52.6736 38.3201 52.6336 38.5869 52.5593 38.8131C52.485 39.0278 52.3821 39.2134 52.2506 39.3584C52.1248 39.5034 51.9704 39.6078 51.7874 39.6833C51.4158 39.8399 50.8955 39.8399 50.5239 39.6833L50.5296 39.6891Z" fill="white"/>
<path id="Vector_3" d="M61.0554 35.9069C60.8095 35.6401 60.5122 35.4371 60.1749 35.2921C59.506 35.0136 58.6369 35.0078 57.9623 35.2921C57.625 35.4371 57.3277 35.6401 57.0875 35.9069C56.8474 36.168 56.653 36.487 56.5215 36.8467C56.39 37.2063 56.3271 37.6008 56.3271 38.03C56.3271 38.4593 56.3958 38.8595 56.5215 39.2192C56.653 39.5846 56.8417 39.8979 57.0875 40.1589C57.3334 40.42 57.625 40.6288 57.968 40.768C58.2996 40.9072 58.6713 40.9826 59.0715 40.9826C59.4717 40.9826 59.8433 40.913 60.1806 40.768C60.518 40.623 60.8153 40.42 61.0611 40.1531C61.3012 39.8921 61.4956 39.573 61.6271 39.2134C61.7586 38.8537 61.8215 38.4593 61.8215 38.03C61.8215 37.6008 61.7586 37.2063 61.6271 36.8467C61.4956 36.4812 61.307 36.168 61.0611 35.9011L61.0554 35.9069ZM58.4369 39.6891C58.2539 39.6137 58.1052 39.5092 57.9737 39.3642C57.8422 39.2192 57.7336 39.0336 57.6593 38.8189C57.5792 38.5927 57.5392 38.3317 57.5392 38.0358C57.5392 37.74 57.5792 37.479 57.6593 37.2527C57.7336 37.0381 57.8365 36.8525 57.968 36.7075C58.0995 36.5624 58.2539 36.4522 58.4369 36.3768C58.6198 36.2956 58.8313 36.2608 59.06 36.2608C59.2887 36.2608 59.506 36.3014 59.6947 36.3768C59.8776 36.4522 60.0263 36.5624 60.1578 36.7017C60.2893 36.8467 60.3922 37.0323 60.4665 37.2469C60.5465 37.4732 60.5809 37.74 60.5809 38.03C60.5809 38.3201 60.5408 38.5869 60.4665 38.8131C60.3922 39.0278 60.2893 39.2134 60.1578 39.3584C60.032 39.5034 59.8776 39.6078 59.6947 39.6833C59.323 39.8399 58.8085 39.8399 58.4311 39.6833L58.4369 39.6891Z" fill="white"/>
<path id="Vector_4" d="M68.7115 35.9304C68.4656 35.6752 68.1683 35.4722 67.831 35.3388C67.4994 35.2054 67.1278 35.1357 66.7276 35.1357H64.9552C64.7208 35.1357 64.5264 35.333 64.5264 35.5708V40.4957C64.5264 40.7335 64.7208 40.9307 64.9552 40.9307H66.7276C67.1278 40.9307 67.4937 40.8611 67.8253 40.7277C68.1626 40.5943 68.4599 40.3913 68.7057 40.136C68.9516 39.8808 69.1403 39.5675 69.2718 39.2079C69.4033 38.8599 69.4661 38.4596 69.4661 38.0303C69.4661 37.6011 69.3975 37.2066 69.2718 36.8528C69.1403 36.4931 68.9459 36.1799 68.7057 35.9247L68.7115 35.9304ZM65.7442 36.2959H66.7333C66.9677 36.2959 67.1849 36.3365 67.3736 36.4119C67.5566 36.4873 67.7052 36.5917 67.8367 36.731C67.9682 36.8702 68.0711 37.05 68.1454 37.2588C68.2198 37.4793 68.2598 37.7403 68.2598 38.0303C68.2598 38.3204 68.2198 38.5872 68.1454 38.8076C68.0711 39.0165 67.9682 39.1963 67.8367 39.3413C67.7109 39.4805 67.5566 39.585 67.3736 39.6604C67.1849 39.7358 66.9677 39.7764 66.7333 39.7764H65.7442V36.3017V36.2959Z" fill="white"/>
<path id="Vector_5" d="M78.8186 37.873C78.6757 37.757 78.5098 37.6584 78.3269 37.5771C78.1725 37.5133 78.0124 37.4495 77.8466 37.3973C77.698 37.3451 77.5493 37.2987 77.4064 37.2465C77.2921 37.2059 77.1949 37.1595 77.1091 37.1015C77.0462 37.0551 76.9948 37.0087 76.9547 36.9507C76.9319 36.9159 76.9204 36.852 76.9204 36.7708C76.9204 36.7012 76.9319 36.6316 76.9605 36.5678C76.9833 36.5098 77.0176 36.4576 77.0691 36.4112C77.1148 36.3648 77.1834 36.3242 77.2578 36.2952C77.3435 36.2604 77.4464 36.2488 77.5722 36.2488C77.7266 36.2488 77.8238 36.272 77.8695 36.2894C77.961 36.3242 78.0353 36.359 78.0868 36.3938C78.1439 36.4286 78.1897 36.4634 78.224 36.4924C78.5327 36.7766 78.9272 36.6896 79.093 36.3764L79.1731 36.214C79.2588 36.0457 79.2302 35.8369 79.0987 35.7035C78.8929 35.4947 78.6585 35.338 78.4069 35.2336C77.9267 35.0422 77.2863 35.0248 76.8118 35.2162C76.5831 35.309 76.3887 35.4308 76.2286 35.5875C76.0686 35.7441 75.9428 35.9297 75.857 36.1385C75.7713 36.3416 75.7312 36.562 75.7312 36.7824C75.7312 37.0609 75.7827 37.3045 75.8799 37.5075C75.9771 37.7048 76.1086 37.8672 76.2686 38.0006C76.4173 38.1224 76.5831 38.221 76.7661 38.2964C76.9204 38.3602 77.0805 38.4183 77.2463 38.4705C77.395 38.5169 77.5436 38.5691 77.6808 38.6155C77.7895 38.6561 77.8924 38.7025 77.9781 38.7605C78.041 38.8011 78.0868 38.8475 78.1268 38.9113C78.1497 38.9519 78.1668 39.0215 78.1668 39.1086C78.1668 39.213 78.1497 39.3116 78.1154 39.3986C78.0811 39.4798 78.0353 39.5494 77.9781 39.6132C77.9153 39.6712 77.8352 39.7234 77.738 39.764C77.5608 39.8336 77.2806 39.8395 77.1091 39.793C77.0291 39.7756 76.9604 39.7466 76.8976 39.7176C76.8404 39.6886 76.7889 39.6596 76.7432 39.6306C76.6917 39.59 76.646 39.5552 76.606 39.5204L76.4916 39.4218C76.2286 39.1898 75.9142 39.2188 75.6741 39.5262L75.5769 39.677C75.4739 39.8395 75.4911 40.0541 75.6169 40.1991C75.8284 40.4427 76.0743 40.6342 76.3544 40.7734C76.646 40.9184 76.9833 40.988 77.3721 40.988C77.6751 40.988 77.9496 40.9358 78.1897 40.843C78.4355 40.7444 78.6471 40.6052 78.8186 40.4311C78.9958 40.2571 79.1273 40.0425 79.2188 39.8046C79.3103 39.5726 79.3503 39.3232 79.3503 39.0621C79.3503 38.8011 79.2989 38.5517 79.1959 38.3545C79.0987 38.163 78.9672 38.0064 78.8072 37.873H78.8186Z" fill="white"/>
<path id="Vector_6" d="M85.2969 35.1357H82.3868C82.1524 35.1357 81.958 35.333 81.958 35.5708V40.4957C81.958 40.7335 82.1524 40.9307 82.3868 40.9307H85.2969C85.5313 40.9307 85.7257 40.7335 85.7257 40.4957V40.1998C85.7257 39.962 85.5313 39.7648 85.2969 39.7648H83.1701V38.5814H84.8681C85.1025 38.5814 85.2969 38.3842 85.2969 38.1464V37.8563C85.2969 37.6185 85.1025 37.4213 84.8681 37.4213H83.1701V36.3017H85.2969C85.5313 36.3017 85.7257 36.1045 85.7257 35.8666V35.5708C85.7257 35.333 85.5313 35.1357 85.2969 35.1357Z" fill="white"/>
<path id="Vector_7" d="M91.2828 38.4653C91.4887 38.3725 91.6659 38.2507 91.8145 38.1057C91.9746 37.9491 92.1004 37.7634 92.1919 37.5488C92.2777 37.34 92.3234 37.1137 92.3234 36.8643C92.3234 36.1624 92.0089 35.7622 91.7459 35.5533C91.3915 35.2691 90.8941 35.1299 90.2251 35.1299H88.9845C88.7501 35.1299 88.5557 35.3271 88.5557 35.5649V40.4898C88.5557 40.7276 88.7501 40.9249 88.9845 40.9249H89.3332C89.5676 40.9249 89.762 40.7276 89.762 40.4898V38.6974H89.985L91.5172 40.6696C91.5801 40.7508 91.6545 40.8147 91.7345 40.8553C91.8203 40.9017 91.9232 40.9249 92.0261 40.9249H92.3291C92.4949 40.9249 92.6436 40.8263 92.7179 40.6812C92.7922 40.5362 92.7694 40.3506 92.6664 40.223L91.2828 38.4595V38.4653ZM89.762 36.29H90.2194C90.551 36.29 90.8026 36.348 90.9512 36.4583C91.0198 36.5105 91.117 36.6149 91.117 36.8875C91.117 36.9977 91.0999 37.0905 91.0656 37.1718C91.0313 37.2472 90.9798 37.311 90.9169 37.369C90.8426 37.427 90.7454 37.4792 90.6311 37.514C90.4996 37.5546 90.3509 37.572 90.1794 37.572H89.762V36.29Z" fill="white"/>
<path id="Vector_8" d="M102.981 35.1357H102.626C102.389 35.1357 102.197 35.3305 102.197 35.5708V40.4957C102.197 40.736 102.389 40.9307 102.626 40.9307H102.981C103.217 40.9307 103.409 40.736 103.409 40.4957V35.5708C103.409 35.3305 103.217 35.1357 102.981 35.1357Z" fill="white"/>
<path id="Vector_9" d="M110.877 39.3815C110.717 39.2249 110.476 39.1843 110.265 39.3003C110.236 39.3177 110.179 39.3583 110.156 39.3815C110.076 39.4569 109.996 39.5207 109.916 39.5787C109.842 39.6309 109.762 39.6716 109.676 39.7064C109.59 39.7412 109.493 39.7702 109.39 39.7876C109.116 39.834 108.698 39.8282 108.39 39.7005C108.207 39.6251 108.052 39.5149 107.921 39.3699C107.789 39.2249 107.681 39.0393 107.601 38.8246C107.521 38.5984 107.48 38.3374 107.48 38.0415C107.48 37.7457 107.521 37.4963 107.601 37.2758C107.681 37.0554 107.789 36.8756 107.926 36.7247C108.064 36.5797 108.224 36.4695 108.418 36.3883C108.721 36.2607 109.139 36.2433 109.419 36.2955C109.516 36.3129 109.607 36.3361 109.682 36.3651C109.75 36.3883 109.807 36.4173 109.859 36.4463C109.916 36.4811 109.968 36.5159 110.008 36.5449L110.122 36.6319C110.402 36.8466 110.745 36.7595 110.899 36.5275L111.008 36.3709C111.128 36.1911 111.1 35.9474 110.939 35.8024C110.814 35.6922 110.688 35.5878 110.556 35.5066C110.419 35.4138 110.271 35.3384 110.116 35.2803C109.962 35.2223 109.802 35.1759 109.625 35.1411C109.453 35.1121 109.264 35.0947 109.064 35.0947C108.658 35.0947 108.275 35.1643 107.938 35.3094C107.595 35.4544 107.292 35.6632 107.04 35.9242C106.794 36.1853 106.594 36.5043 106.463 36.864C106.331 37.2178 106.263 37.6181 106.263 38.0415C106.263 38.465 106.326 38.871 106.457 39.2307C106.589 39.5961 106.777 39.9094 107.012 40.1704C107.252 40.4373 107.543 40.6403 107.881 40.7853C108.212 40.9245 108.578 40.9999 108.973 40.9999C109.201 40.9999 109.413 40.9825 109.607 40.9419C109.802 40.9013 109.99 40.8433 110.156 40.7737C110.322 40.6983 110.482 40.6113 110.625 40.5069C110.762 40.4024 110.894 40.2864 111.014 40.1588C111.168 39.9906 111.168 39.7296 111.014 39.5671L110.865 39.4047L110.877 39.3815Z" fill="white"/>
<path id="Vector_10" d="M117.159 35.1357H114.249C114.015 35.1357 113.82 35.333 113.82 35.5708V40.4957C113.82 40.7335 114.015 40.9307 114.249 40.9307H117.159C117.394 40.9307 117.588 40.7335 117.588 40.4957V40.1998C117.588 39.962 117.394 39.7648 117.159 39.7648H115.032V38.5814H116.73C116.965 38.5814 117.159 38.3842 117.159 38.1464V37.8563C117.159 37.6185 116.965 37.4213 116.73 37.4213H115.032V36.3017H117.159C117.394 36.3017 117.588 36.1045 117.588 35.8666V35.5708C117.588 35.333 117.394 35.1357 117.159 35.1357Z" fill="white"/>
<path id="Vector_11" d="M0.897619 0.0292969H0.428801C0.191981 0.0292969 0 0.22408 0 0.464356V19.2009C0 19.4412 0.191981 19.636 0.428801 19.636H0.897619C1.13444 19.636 1.32642 19.4412 1.32642 19.2009V0.464356C1.32642 0.22408 1.13444 0.0292969 0.897619 0.0292969Z" fill="white"/>
<path id="Vector_12" d="M44.0465 14.3457C44.5897 13.1043 44.8641 11.5845 44.8641 9.83264C44.8641 8.0808 44.5897 6.561 44.0465 5.31963C43.4977 4.07246 42.7315 3.03991 41.771 2.25681C40.8162 1.4795 39.6613 0.905222 38.3406 0.551374C37.0428 0.203326 35.6192 0.0292969 34.0983 0.0292969H28.7755C28.5411 0.0292969 28.3467 0.226524 28.3467 0.464356V19.2009C28.3467 19.4388 28.5411 19.636 28.7755 19.636H34.0983C35.6134 19.636 37.0428 19.462 38.3406 19.1139C39.6613 18.7601 40.8162 18.1858 41.771 17.4085C42.7373 16.6254 43.5034 15.5928 44.0465 14.3457ZM37.9976 17.9247C36.8255 18.2496 35.5162 18.4178 34.0983 18.4178H29.6731V1.24747H34.0983C35.5162 1.24747 36.8255 1.40988 38.0033 1.72313C39.1525 2.03637 40.1416 2.53524 40.9534 3.21973C41.7596 3.89843 42.3942 4.78595 42.8516 5.8533C43.309 6.93224 43.5434 8.27222 43.5434 9.82684C43.5434 11.3814 43.309 12.6924 42.8516 13.7714C42.3999 14.8445 41.7596 15.732 40.9534 16.4049C40.1416 17.0894 39.1468 17.5941 38.0033 17.9131L37.9976 17.9247Z" fill="white"/>
<path id="Vector_13" d="M84.1706 19.2009V18.8529C84.1706 18.615 83.9762 18.4178 83.7418 18.4178H70.9407V1.24747H83.313C83.5474 1.24747 83.7418 1.05024 83.7418 0.812407V0.464356C83.7418 0.226524 83.5474 0.0292969 83.313 0.0292969H70.0431C69.8086 0.0292969 69.6143 0.226524 69.6143 0.464356V19.2009C69.6143 19.4388 69.8086 19.636 70.0431 19.636H83.7475C83.982 19.636 84.1763 19.4388 84.1763 19.2009H84.1706Z" fill="white"/>
<path id="Vector_14" d="M159.572 18.4178H148.566V0.464356C148.566 0.226524 148.371 0.0292969 148.137 0.0292969H147.668C147.434 0.0292969 147.239 0.226524 147.239 0.464356V19.2009C147.239 19.4388 147.434 19.636 147.668 19.636H159.572C159.806 19.636 160 19.4388 160 19.2009V18.8529C160 18.615 159.806 18.4178 159.572 18.4178Z" fill="white"/>
<path id="Vector_15" d="M140.001 9.39728L131.853 9.29867L123.706 9.24066L118.812 9.22905L114.822 0.255227C114.753 0.098606 114.599 0 114.433 0H113.804C113.632 0 113.478 0.104409 113.409 0.266831L109.653 9.20586H107.418L91.1288 9.24646L82.9816 9.30447L74.8401 9.40308C74.6057 9.40308 74.417 9.60031 74.417 9.83814C74.417 10.076 74.6057 10.2732 74.8401 10.2732L82.9873 10.3718L91.1345 10.4298L107.423 10.4762H109.127L97.1663 38.9407L95.0338 33.6678C94.9937 33.575 94.9366 33.4938 94.868 33.4358C94.7708 33.3488 94.645 33.3023 94.5078 33.3023H94.2276C94.0847 33.3023 93.9532 33.372 93.8731 33.4938C93.7931 33.6156 93.7759 33.7664 93.8331 33.8998L96.5774 40.6693C96.6461 40.8318 96.8004 40.9362 96.9719 40.9362H97.2864C97.2864 40.9362 97.2978 40.9362 97.3035 40.9362H97.4522C97.6237 40.9362 97.7838 40.8318 97.8467 40.6693L109.299 12.9532L110.373 10.4704L117.943 10.4472L121.911 19.3862C121.98 19.5429 122.134 19.6415 122.3 19.6415H122.729C122.963 19.6415 123.157 19.4442 123.157 19.2064V19.0904C123.157 19.0266 123.146 18.9686 123.117 18.9106L119.35 10.4414L123.706 10.4298L131.853 10.3718L139.995 10.2732C140.229 10.2732 140.418 10.076 140.418 9.83814C140.418 9.60031 140.229 9.40308 139.995 9.40308L140.001 9.39728ZM117.406 9.22326L110.922 9.20586L114.124 1.82725L117.406 9.22326Z" fill="white"/>
</g>
</svg>
