<svg width="16" height="16" viewBox="0 0 16 16" fill="none" xmlns="http://www.w3.org/2000/svg">
<path d="M9.72667 7.33333H12V6H10.88C11.16 5.56 11.3333 5.12 11.3333 4.66667C11.3333 2.91333 9.66667 2 8 2C6.43333 2 5.02 3.37333 4.86 3.52667L5.80667 4.47333C6.12667 4.15333 7.14 3.33333 8 3.33333C8.69333 3.33333 10 3.61333 10 4.66667C10 5 9.66667 5.49333 9.17333 6H4V7.33333H7.75333C7.47333 7.57333 6.5 8.44667 6.27333 8.66667H4V10H5.12C4.84 10.44 4.66667 10.88 4.66667 11.3333C4.66667 13.0867 6.33333 14 8 14C9.56667 14 10.98 12.6267 11.14 12.4733L10.1933 11.5267C9.88 11.8467 8.86 12.6667 8 12.6667C7.30667 12.6667 6 12.3867 6 11.3333C6 11 6.33333 10.5067 6.82667 10H12V8.66667H8.25333L9.72667 7.33333Z" fill="black"/>
</svg>
