<svg xmlns="http://www.w3.org/2000/svg" width="15" height="14" viewBox="0 0 15 14" fill="none">
  <path d="M9.01083 6.41667H11V5.25H10.02C10.265 4.865 10.4167 4.48 10.4167 4.08333C10.4167 2.54917 8.95833 1.75 7.5 1.75C6.12917 1.75 4.8925 2.95167 4.7525 3.08583L5.58083 3.91417C5.86083 3.63417 6.7475 2.91667 7.5 2.91667C8.10667 2.91667 9.25 3.16167 9.25 4.08333C9.25 4.375 8.95833 4.80667 8.52667 5.25H4V6.41667H7.28417C7.03917 6.62667 6.1875 7.39083 5.98917 7.58333H4V8.75H4.98C4.735 9.135 4.58333 9.52 4.58333 9.91667C4.58333 11.4508 6.04167 12.25 7.5 12.25C8.87083 12.25 10.1075 11.0483 10.2475 10.9142L9.41917 10.0858C9.145 10.3658 8.2525 11.0833 7.5 11.0833C6.89333 11.0833 5.75 10.8383 5.75 9.91667C5.75 9.625 6.04167 9.19333 6.47333 8.75H11V7.58333H7.72167L9.01083 6.41667Z" fill="#141414"/>
</svg>