<svg width="20" height="20" viewBox="0 0 20 20" fill="none" xmlns="http://www.w3.org/2000/svg">
<path d="M16.5445 15.9557L10.5895 9.99985L16.5445 4.04402C16.6204 3.96544 16.6624 3.86019 16.6614 3.75094C16.6605 3.64169 16.6167 3.53718 16.5394 3.45993C16.4622 3.38268 16.3577 3.33886 16.2484 3.33791C16.1392 3.33696 16.0339 3.37895 15.9553 3.45485L10.0003 9.41069L4.0445 3.45569C3.96591 3.37979 3.86066 3.33779 3.75141 3.33874C3.64216 3.33969 3.53766 3.38351 3.4604 3.46076C3.38315 3.53802 3.33933 3.64252 3.33838 3.75177C3.33743 3.86102 3.37943 3.96627 3.45533 4.04485L9.41116 9.99985L3.45533 15.9549C3.41553 15.9933 3.38379 16.0393 3.36195 16.0901C3.34012 16.1409 3.32862 16.1956 3.32814 16.2509C3.32766 16.3063 3.3382 16.3611 3.35915 16.4123C3.3801 16.4635 3.41104 16.5101 3.45016 16.5492C3.48929 16.5883 3.53581 16.6192 3.58701 16.6402C3.63822 16.6611 3.69309 16.6717 3.74841 16.6712C3.80374 16.6707 3.85841 16.6592 3.90925 16.6374C3.96008 16.6156 4.00606 16.5838 4.0445 16.544L10.0003 10.589L15.9553 16.5449C15.9939 16.5837 16.0398 16.6146 16.0904 16.6356C16.1409 16.6567 16.1951 16.6675 16.2499 16.6675C16.3047 16.6675 16.3589 16.6567 16.4095 16.6356C16.46 16.6146 16.5059 16.5837 16.5445 16.5449C16.6226 16.4667 16.6665 16.3608 16.6665 16.2503C16.6665 16.1398 16.6226 16.0338 16.5445 15.9557Z" fill="#A6A0A0"/>
</svg>
