<svg xmlns="http://www.w3.org/2000/svg" width="11" height="28" viewBox="0 0 11 28" fill="none">
<path d="M5.5 0C7.52503 0 9.16667 1.56702 9.16667 3.5C9.16667 5.43298 7.52503 7 5.5 7C3.47497 7 1.83333 5.43298 1.83333 3.5C1.83333 1.56702 3.47497 0 5.5 0ZM8.25 7.875H7.59917C6.29802 8.4461 4.75807 8.47077 3.40083 7.875H2.75C1.2312 7.875 0 9.05023 0 10.5V17.9375C0 18.6624 0.615599 19.25 1.375 19.25H2.29167V26.6875C2.29167 27.4124 2.90727 28 3.66667 28H7.33333C8.09273 28 8.70833 27.4124 8.70833 26.6875V19.25H9.625C10.3844 19.25 11 18.6624 11 17.9375V10.5C11 9.05023 9.7688 7.875 8.25 7.875Z" fill="#141414"/>
</svg>