<svg width="10" height="26" viewBox="0 0 10 26" fill="none" xmlns="http://www.w3.org/2000/svg">
<rect width="10" height="26" fill="#908F8F"/>
<g id="&#240;&#159;&#166;&#134; icon &#34;Male&#34;">
<path id="Vector" d="M5 0C6.84094 0 8.33333 1.45509 8.33333 3.25C8.33333 5.04491 6.84094 6.5 5 6.5C3.15906 6.5 1.66667 5.04491 1.66667 3.25C1.66667 1.45509 3.15906 0 5 0ZM7.5 7.3125H6.90833C5.72547 7.84281 4.32552 7.86571 3.09167 7.3125H2.5C1.11927 7.3125 0 8.40379 0 9.75V16.6562C0 17.3294 0.559635 17.875 1.25 17.875H2.08333V24.7812C2.08333 25.4544 2.64297 26 3.33333 26H6.66667C7.35703 26 7.91667 25.4544 7.91667 24.7812V17.875H8.75C9.44036 17.875 10 17.3294 10 16.6562V9.75C10 8.40379 8.88073 7.3125 7.5 7.3125Z" fill="#141414"/>
</g>
<g id="&#209;&#129;&#209;&#130;&#208;&#176;&#209;&#128;&#209;&#130;&#208;&#190;&#208;&#178;&#208;&#176; &#209;&#129;&#209;&#130;&#208;&#190;&#209;&#128;&#209;&#150;&#208;&#189;&#208;&#186;&#208;&#176; 2">
<rect width="1440" height="5009" transform="translate(-1613 -2972)" fill="#F9F9F9"/>
</g>
</svg>
