<svg width="30" height="31" viewBox="0 0 30 31" fill="none" xmlns="http://www.w3.org/2000/svg">
<g id="&#209;&#150;&#208;&#189;&#209;&#129;&#209;&#130;&#208;&#176;&#208;&#179;&#209;&#128;&#208;&#176;&#208;&#188;">
<path id="Vector" d="M21.2498 2.99978C22.906 3.00472 24.4929 3.66484 25.664 4.83595C26.8352 6.00707 27.4953 7.59402 27.5002 9.25022V21.7498C27.4953 23.406 26.8352 24.9929 25.664 26.164C24.4929 27.3352 22.906 27.9953 21.2498 28.0002H8.75022C7.09402 27.9953 5.50707 27.3352 4.33595 26.164C3.16484 24.9929 2.50472 23.406 2.49978 21.7498V9.25022C2.50472 7.59402 3.16484 6.00707 4.33595 4.83595C5.50707 3.66484 7.09402 3.00472 8.75022 2.99978H21.2498ZM21.2498 0.5H8.75022C3.9375 0.5 0 4.4375 0 9.25022V21.7498C0 26.5625 3.9375 30.5 8.75022 30.5H21.2498C26.0625 30.5 30 26.5625 30 21.7498V9.25022C30 4.4375 26.0625 0.5 21.2498 0.5Z" fill="white"/>
<path id="Vector_2" d="M23.1248 9.25195C22.7539 9.25195 22.3914 9.14199 22.0831 8.93596C21.7747 8.72993 21.5344 8.4371 21.3925 8.09448C21.2506 7.75187 21.2135 7.37487 21.2858 7.01116C21.3582 6.64744 21.5367 6.31335 21.799 6.05113C22.0612 5.7889 22.3953 5.61033 22.759 5.53798C23.1227 5.46563 23.4997 5.50277 23.8423 5.64468C24.1849 5.78659 24.4778 6.02692 24.6838 6.33526C24.8898 6.6436 24.9998 7.00611 24.9998 7.37695C25.0003 7.62333 24.9522 7.86739 24.8581 8.09511C24.7641 8.32284 24.626 8.52974 24.4518 8.70396C24.2776 8.87818 24.0707 9.01627 23.8429 9.11031C23.6152 9.20435 23.3712 9.25248 23.1248 9.25195ZM15 10.5015C15.989 10.5015 16.9557 10.7948 17.778 11.3442C18.6003 11.8936 19.2412 12.6746 19.6196 13.5882C19.9981 14.5019 20.0971 15.5073 19.9041 16.4772C19.7112 17.4472 19.235 18.3381 18.5357 19.0374C17.8364 19.7367 16.9454 20.2129 15.9755 20.4059C15.0055 20.5988 14.0002 20.4998 13.0865 20.1213C12.1728 19.7429 11.3919 19.102 10.8425 18.2797C10.293 17.4574 9.99978 16.4907 9.99978 15.5017C10.0012 14.176 10.5285 12.905 11.4659 11.9676C12.4033 11.0302 13.6743 10.5029 15 10.5015ZM15 8.00173C13.5166 8.00173 12.0666 8.4416 10.8332 9.26571C9.59986 10.0898 8.63856 11.2612 8.07091 12.6316C7.50325 14.002 7.35472 15.51 7.64411 16.9649C7.9335 18.4198 8.64781 19.7561 9.6967 20.805C10.7456 21.8539 12.082 22.5682 13.5368 22.8576C14.9917 23.147 16.4997 22.9985 17.8701 22.4308C19.2406 21.8632 20.4119 20.9019 21.236 19.6685C22.0601 18.4351 22.5 16.9851 22.5 15.5017C22.5 13.5126 21.7098 11.605 20.3033 10.1984C18.8968 8.79191 16.9891 8.00173 15 8.00173Z" fill="white"/>
</g>
</svg>
