<svg aria-hidden="true" style="position: absolute; width: 0; height: 0; overflow: hidden;" version="1.1" xmlns="http://www.w3.org/2000/svg" xmlns:xlink="http://www.w3.org/1999/xlink">
<defs>
<symbol id="eye-slash" viewBox="0 0 32 32">
<path   d="M26.719 22.475c3.4-3.038 5.281-6.475 5.281-6.475s-6-11-16-11c-1.919 0.006-3.819 0.406-5.581 1.175l1.537 1.544c1.294-0.469 2.662-0.713 4.037-0.719 4.238 0 7.756 2.338 10.337 4.912 1.244 1.25 2.35 2.619 3.319 4.088l-0.394 0.575c-0.669 0.962-1.663 2.244-2.931 3.512-0.331 0.331-0.675 0.656-1.031 0.975l1.425 1.413z"></path>
<path    d="M22.594 18.35c1.3-3.637-0.594-7.644-4.238-8.95-1.525-0.544-3.188-0.544-4.713 0l1.644 1.644c2.731-0.394 5.269 1.506 5.656 4.244 0.069 0.469 0.069 0.944 0 1.419l1.65 1.644zM16.706 20.95l1.644 1.644c-3.637 1.3-7.644-0.594-8.95-4.238-0.544-1.525-0.544-3.188 0-4.713l1.644 1.644c-0.394 2.731 1.506 5.269 4.244 5.656 0.475 0.075 0.95 0.075 1.419 0.006z"></path>
<path    d="M6.7 10.938c-0.362 0.319-0.706 0.644-1.038 0.975-1.244 1.25-2.35 2.619-3.319 4.088l0.394 0.575c0.669 0.962 1.663 2.244 2.931 3.512 2.575 2.575 6.094 4.913 10.331 4.913 1.431 0 2.781-0.269 4.038-0.719l1.538 1.544c-1.756 0.769-3.656 1.169-5.581 1.175-9.994 0-15.994-11-15.994-11s1.875-3.444 5.281-6.475l1.419 1.412z"></path>
<path    d="M3.294 4.708l1.419-1.419 24.002 24.002-1.419 1.419-24.002-24.002z"></path>
</symbol>
<symbol id="eye" viewBox="0 0 32 32">
<path d="M31.714 15.086c-0.247-0.355-6.151-8.686-15.714-8.686s-15.467 8.332-15.714 8.686c-0.382 0.549-0.382 1.278 0 1.827 0.247 0.355 6.151 8.686 15.714 8.686s15.467-8.332 15.714-8.686c0.382-0.549 0.382-1.278 0-1.827zM16 24c-8.836 0-14.4-8-14.4-8s5.564-8 14.4-8 14.4 8 14.4 8-5.564 8-14.4 8z"></path>
<path d="M16 9.6c-3.534 0-6.4 2.865-6.4 6.4s2.865 6.4 6.4 6.4c3.535 0 6.4-2.865 6.4-6.4s-2.866-6.4-6.4-6.4zM16 20.8c-2.647 0-4.8-2.153-4.8-4.8s2.153-4.8 4.8-4.8c2.647 0 4.8 2.153 4.8 4.8s-2.153 4.8-4.8 4.8z"></path>
</symbol>
<symbol id="arrow_down" viewBox="0 0 24 24">
<path d="M7.406 8.578l4.594 4.594 4.594-4.594 1.406 1.406-6 6-6-6z"></path>
</symbol>
<symbol id="arrow_up" viewBox="0 0 24 24">
<path d="M7.406 15.422l-1.406-1.406 6-6 6 6-1.406 1.406-4.594-4.594z"></path>
</symbol>
</defs>
</svg>
